<?xml version="1.0"?>
<svg xmlns="http://www.w3.org/2000/svg" xmlns:xlink="http://www.w3.org/1999/xlink" viewBox="0 0 512 512" width="512" height="512"><defs><linearGradient id="linear-gradient" x1="65.025" y1="414.01" x2="437.908" y2="41.127" gradientUnits="userSpaceOnUse"><stop offset="0" stop-color="#41dfd0"/><stop offset="1" stop-color="#ee83ef"/></linearGradient></defs><g id="gradient"><path d="M495.834,221.121a8,8,0,0,0-5.012-5.864l-38.573-14.545,22.657-34.441a8,8,0,0,0-5.565-12.319l-65.034-9.181a140.645,140.645,0,0,0-64.489,5.909A140.8,140.8,0,0,0,325.483,87.5L296.655,28.488A8,8,0,0,0,283.22,27l-25.753,32.19L231.714,27a8,8,0,0,0-13.436,1.485L189.449,87.5A141.111,141.111,0,0,0,175.23,150.72a140.765,140.765,0,0,0-64.6-5.949l-65.034,9.181a8,8,0,0,0-5.566,12.319l22.658,34.441L24.11,215.257a8,8,0,0,0-2.738,13.236l47.217,45.653a140.618,140.618,0,0,0,55.6,33.208,140.916,140.916,0,0,0-25.5,59.457L87.333,431.5a8,8,0,0,0,10,9.1l39.756-10.907L139,470.872a8,8,0,0,0,11.742,6.695l58.012-30.8a141.015,141.015,0,0,0,48.667-42.755,140.919,140.919,0,0,0,48.765,42.756l58.01,30.8a8,8,0,0,0,11.743-6.695l1.913-41.181L417.6,440.6a8,8,0,0,0,10-9.1L416.235,366.81a140.665,140.665,0,0,0-25.486-59.553,140.77,140.77,0,0,0,55.595-33.111l47.217-45.653A8,8,0,0,0,495.834,221.121ZM203.826,94.525,227.11,46.861,251.22,77a8,8,0,0,0,12.494,0l24.109-30.137,23.283,47.664a124.473,124.473,0,0,1,12.146,66.736,7.911,7.911,0,0,0-.1.884,120.786,120.786,0,0,1-8.374,33.236,15.943,15.943,0,0,0-14.379,19.25l-20.376,18.32,11.128-25.042a16.032,16.032,0,1,0-14.616-6.509l-11.071,24.915V184a7.984,7.984,0,0,0-.262-2,16,16,0,1,0-15.476,0,7.99,7.99,0,0,0-.262,2v42.3L238.4,201.394a15.988,15.988,0,1,0-14.612,6.517l11.134,25.056-20.39-18.333a15.942,15.942,0,0,0-14.382-19.253C187.08,163.432,188.333,126.241,203.826,94.525ZM273.467,264a16,16,0,0,1-31.909,1.691v-.032c0-.018-.007-.036-.009-.055a16,16,0,1,1,31.919-1.6ZM41.574,225.771l36.112-13.617a8,8,0,0,0,3.861-11.882L60.336,168.03l52.526-7.415a124.549,124.549,0,0,1,63.627,7.6,136.076,136.076,0,0,0,9.2,34.055,15.98,15.98,0,0,0,18.126,24.253l20.268,18.224L183.854,231.67a8.024,8.024,0,0,0-1.982-.368,16,16,0,1,0-4.782,14.718,7.978,7.978,0,0,0,1.819.867l40.224,13.07-27.1,2.829a15.988,15.988,0,1,0,1.684,15.912l27.279-2.848-23.745,13.73A15.944,15.944,0,0,0,174.5,297.3c-34.8,2.659-69.086-9.809-94.786-34.657ZM201.248,432.637l-46.854,24.875L152.6,418.96a8,8,0,0,0-10.108-7.344l-37.219,10.21,9.179-52.247a124.708,124.708,0,0,1,26.8-58.04,136.731,136.731,0,0,0,24,2.13q5.648,0,11.326-.479a15.979,15.979,0,0,0,28.662-9.749L228.833,289.8l-24.861,34.22a7.936,7.936,0,0,0-.963,1.77,16,16,0,1,0,12.522,9.1,8,8,0,0,0,1.384-1.468L241.78,299.2,236.1,325.856a15.988,15.988,0,1,0,15.652,3.32l5.718-26.815,5.58,26.163a16.007,16.007,0,0,0-.092,18.939,16.173,16.173,0,0,0,1.452,1.7C257.09,384.405,233.751,415.38,201.248,432.637Zm208.408-10.811-37.218-10.21a8,8,0,0,0-10.108,7.344l-1.791,38.552-46.853-24.874a124.706,124.706,0,0,1-47-43.541,136.107,136.107,0,0,0,13.136-35.536,15.986,15.986,0,0,0-1.763-31.343l-4.91-23.02,24.866,34.226a8.064,8.064,0,0,0,1.383,1.469,16,16,0,1,0,12.523-9.1,8.017,8.017,0,0,0-.963-1.77l-24.867-34.228,23.6,13.645a15.988,15.988,0,1,0,8-13.859L293.947,275.85l30.574,3.193a15.994,15.994,0,0,0,18.254,6.358c.148-.047.286-.112.432-.164,30.217,18.24,51.029,48.823,57.271,84.341Zm25.567-159.181a124.629,124.629,0,0,1-55.811,31.213,136.856,136.856,0,0,0-25.812-21,15.994,15.994,0,0,0-29.99-10l-27.809-2.9,40.222-13.069a7.974,7.974,0,0,0,2.458-1.318,16,16,0,1,0-5.57-14.257,8,8,0,0,0-1.833.358L290.84,244.745l20.272-18.227a15.98,15.98,0,0,0,18.134-24.244c.016-.037.036-.071.052-.109a136.65,136.65,0,0,0,9.237-34,124.466,124.466,0,0,1,63.535-7.553L454.6,168.03l-21.211,32.242a8,8,0,0,0,3.861,11.882l36.111,13.617ZM293.662,120.227a8,8,0,0,1,9.662,5.884A75.816,75.816,0,0,1,305.467,144a8,8,0,0,1-16,0,59.846,59.846,0,0,0-1.69-14.111A8,8,0,0,1,293.662,120.227Zm-19.35-20.649a8,8,0,0,1,14.31-7.156l4,8a8,8,0,1,1-14.31,7.156ZM153.228,196.484a59.911,59.911,0,0,0-13.943-2.755,8,8,0,0,1,1.213-15.953,75.794,75.794,0,0,1,17.675,3.492,8,8,0,1,1-4.945,15.216Zm-31.367-9.748a8,8,0,0,1-6.719,9.1l-8.845,1.332a8.163,8.163,0,0,1-1.2.09,8,8,0,0,1-1.182-15.912l8.845-1.332A8.006,8.006,0,0,1,121.861,186.736Zm39.183,155.536a59.817,59.817,0,0,0-6.928,12.41,8,8,0,0,1-14.8-6.082,75.839,75.839,0,0,1,8.782-15.732,8,8,0,0,1,12.945,9.4ZM148.66,378.3l-1.467,8.823A8,8,0,0,1,131.41,384.5l1.467-8.823A8,8,0,1,1,148.66,378.3Zm164.032,23.3a8,8,0,0,1-11.276.919A75.9,75.9,0,0,1,289.168,389.3a8,8,0,1,1,12.943-9.406,59.881,59.881,0,0,0,9.662,10.423A8,8,0,0,1,312.692,401.591ZM343.9,417.707a8,8,0,0,1-10.786,3.415L325.174,417a8,8,0,1,1,7.371-14.2l7.938,4.121A8,8,0,0,1,343.9,417.707ZM405.389,254A8,8,0,0,1,402.777,265a75.806,75.806,0,0,1-16.351,7.564,8,8,0,1,1-4.944-15.216,59.855,59.855,0,0,0,12.9-5.967A8,8,0,0,1,405.389,254Zm24.97-24.7a8,8,0,0,1-.085,11.313l-6.372,6.277a8,8,0,0,1-11.228-11.4l6.372-6.276A8,8,0,0,1,430.359,229.3ZM43.81,90.343l8-8A8,8,0,0,1,63.124,93.657l-8,8A8,8,0,1,1,43.81,90.343Zm8-48,8-8A8,8,0,0,1,71.124,45.657l-8,8A8,8,0,1,1,51.81,42.343ZM439.124,53.657l-8,8A8,8,0,1,1,419.81,50.343l8-8a8,8,0,0,1,11.314,11.314Zm-56,12.686a8,8,0,0,1,0,11.314l-8,8A8,8,0,1,1,363.81,74.343l8-8A8,8,0,0,1,383.124,66.343Zm48,32a8,8,0,0,1,0,11.314l-8,8a8,8,0,1,1-11.314-11.314l8-8A8,8,0,0,1,431.124,98.343Zm-360,243.314-8,8A8,8,0,1,1,51.81,338.343l8-8a8,8,0,0,1,11.314,11.314Zm-8,28.686a8,8,0,0,1,0,11.314l-8,8A8,8,0,1,1,43.81,378.343l8-8A8,8,0,0,1,63.124,370.343ZM249.467,480a8,8,0,0,1-5.657-13.657l8-8a8,8,0,0,1,11.314,11.314l-8,8A7.974,7.974,0,0,1,249.467,480ZM463.124,317.657l-8,8a8,8,0,1,1-11.314-11.314l8-8a8,8,0,0,1,11.314,11.314Zm0,28.686a8,8,0,0,1,0,11.314l-8,8a8,8,0,1,1-11.314-11.314l8-8A8,8,0,0,1,463.124,346.343Z" style="fill:url(#linear-gradient)"/></g></svg>
